<svg width="290" height="133" viewBox="0 0 290 133" fill="none" xmlns="http://www.w3.org/2000/svg">
<rect x="15.5" y="49.4586" width="68.0414" height="68.0414" rx="34.0207" fill="#9C27B0"/>
<path d="M44.3764 52.707L62.8077 43.7799C62.9977 43.688 63.1932 43.614 63.3887 43.5447C61.9744 43.0369 60.3902 43.1093 58.9984 43.7799L40.5671 52.707C38.7882 53.5801 37.6519 55.3925 37.6519 57.3684V90.213H41.4612V57.3684C41.4612 55.3925 42.5975 53.5801 44.3764 52.707Z" fill="white"/>
<path d="M78.5007 67.0043V62.3265C78.5007 60.828 77.6938 59.4277 76.4087 58.6535L71.632 55.8201V51.274C71.632 49.7591 70.8906 48.3588 69.6226 47.5192L64.6154 44.1585C64.2291 43.8991 63.8163 43.6982 63.3888 43.5447C63.1933 43.614 62.9978 43.688 62.8077 43.7799L44.3764 52.707C42.5975 53.5801 41.4612 55.3925 41.4612 57.3684V90.213H60.8926H60.9261V80.3466H64.7354H64.747L76.3433 71.386C77.6938 70.3315 78.5007 68.7177 78.5007 67.0043Z" fill="#FFCC99"/>
<path d="M37.5738 101.43V93.1118C37.5738 91.5137 38.8744 90.213 40.4726 90.213H37.6517H36.6633C35.0651 90.213 33.7637 91.5137 33.7637 93.1118V101.43C33.7637 103.027 35.0651 104.329 36.6633 104.329H40.4726C38.8744 104.329 37.5738 103.027 37.5738 101.43Z" fill="white"/>
<path d="M60.8925 90.213H37.6519V57.3684C37.6519 55.3925 38.7882 53.5801 40.5671 52.7071L58.9984 43.7799C60.81 42.9069 62.9518 43.0385 64.6154 44.1585L69.6226 47.5192C70.8905 48.3588 71.632 49.7591 71.632 51.274V55.8201V62.6396C71.632 64.4512 70.6273 66.0985 69.0127 66.9054L58.1915 72.4071C56.6759 73.1813 54.8806 73.1151 53.4312 72.2591L46.6779 68.2395C45.3273 67.449 44.5033 65.9996 44.5033 64.4349C44.5033 63.3149 44.9652 62.3102 45.6895 61.5687C46.4146 60.8444 47.4357 60.3997 48.5393 60.3997H51.5043" stroke="#231F20" stroke-width="2.09001" stroke-miterlimit="10"/>
<path d="M49.3953 80.3468H64.747L76.3432 71.3862C77.6938 70.3316 78.5006 68.7179 78.5006 67.0044V62.3267C78.5006 60.8282 77.6937 59.4278 76.4087 58.6537L71.632 55.8202" stroke="#231F20" stroke-width="2.09001" stroke-miterlimit="10"/>
<path d="M60.926 90.213V80.3466" stroke="#231F20" stroke-width="2.09001" stroke-miterlimit="10"/>
<path d="M51.5044 55.8203V64.7972" stroke="#231F20" stroke-width="2.09001" stroke-miterlimit="10"/>
<rect x="32.066" y="89.5742" width="32.8101" height="14.1618" rx="3.71557" fill="white" stroke="#231F20" stroke-width="1.85779"/>
<rect x="36.0708" y="90.5029" width="27.8763" height="12.304" rx="2.32223" fill="#66CC99"/>
<rect x="110.542" y="49.4586" width="68.0414" height="68.0414" rx="34.0207" fill="#9C27B0"/>
<path d="M133.569 102.152V93.8507C133.569 92.9955 133.94 92.2354 134.521 91.7034H132.294C130.696 91.7034 129.395 93.0041 129.395 94.6186V102.92C129.395 104.534 130.696 105.836 132.294 105.836H157.544C158.295 105.836 158.975 105.54 159.49 105.068H136.468C134.87 105.068 133.569 103.767 133.569 102.152Z" fill="white"/>
<path d="M162.921 35.7236C163.005 35.3902 163.145 35.0881 163.322 34.8178C163.157 34.7002 163.006 34.5662 162.815 34.4821C162.42 34.317 162.025 34.2344 161.629 34.2344C160.312 34.2344 159.093 35.1239 158.747 36.4915L157.393 41.9863L157.502 57.7135L162.921 35.7236Z" fill="#FFCC99"/>
<path d="M167.961 55.6377C168.033 55.5186 168.129 55.4298 168.212 55.3239C167.703 55.0123 167.133 54.8402 166.554 54.8402C166.073 54.8402 165.596 54.9625 165.155 55.1743L163.678 62.7042L167.961 55.6377Z" fill="#FFCC99"/>
<path d="M139.713 35.098C139.713 35.0154 139.696 34.9329 139.696 34.8675C139.696 34.2537 139.907 33.6914 140.236 33.2116C139.551 32.7303 138.673 32.5286 137.795 32.7521C136.461 33.0816 135.522 34.2677 135.522 35.6346C135.522 35.7008 135.539 35.7826 135.539 35.8652L136.336 46.864L141.492 59.6401L139.713 35.098Z" fill="#FFCC99"/>
<path d="M150.88 29.0691C150.913 28.3767 151.17 27.7497 151.568 27.2411C151.085 26.9498 150.524 26.773 149.918 26.773C148.189 26.773 146.788 28.1236 146.706 29.837L146.321 38.3373L149.595 57.4493L150.88 29.0691Z" fill="#FFCC99"/>
<path d="M139.202 78.2367L130.011 46.6772C129.929 46.3975 129.896 46.1335 129.896 45.8539C129.896 45.3033 130.057 44.769 130.347 44.3095C129.5 43.6825 128.347 43.5267 127.319 44.0353C126.315 44.5291 125.722 45.5502 125.722 46.6211C125.722 46.9015 125.755 47.1647 125.837 47.4451L135.028 79.0038V91.7036H154.794V90.9357H139.202V78.2367Z" fill="white"/>
<path d="M159.043 79.0037L169.387 59.5841C169.964 58.5132 169.882 57.1961 169.173 56.2078C168.907 55.8254 168.573 55.5442 168.212 55.3238C168.129 55.4297 168.033 55.5185 167.961 55.6377L163.679 62.7041L165.155 55.1743C164.616 55.4336 164.132 55.8339 163.787 56.4048L159.505 63.4713L164.545 37.7757C164.769 36.6144 164.252 35.4843 163.322 34.8176C163.145 35.0879 163.005 35.3901 162.921 35.7234L157.502 57.7133L157.393 41.9861L153.328 58.4804L153.13 29.9522C153.119 28.7956 152.493 27.7971 151.569 27.241C151.17 27.7496 150.914 28.3766 150.88 29.069L149.595 57.4493L146.321 38.3372L145.422 58.2172L141.468 35.1409C141.327 34.3231 140.861 33.6517 140.236 33.2117C139.907 33.6914 139.696 34.2538 139.696 34.8675C139.696 34.9329 139.713 35.0155 139.713 35.098L141.491 59.6401L136.336 46.864L137.318 60.4073L131.322 45.5501C131.111 45.0298 130.762 44.617 130.347 44.3094C130.057 44.7689 129.896 45.3032 129.896 45.8538C129.896 46.1334 129.929 46.3975 130.011 46.6771L139.202 78.2366V90.9356H154.794V83.9455L159.043 79.0037Z" fill="#FFCC99"/>
<path d="M145.422 58.2172L141.468 35.1409C141.172 33.4274 139.475 32.3238 137.795 32.7521C136.461 33.0816 135.522 34.2678 135.522 35.6346C135.522 35.7008 135.539 35.7826 135.539 35.8652L137.318 60.4073" stroke="#231F20" stroke-width="2.09001" stroke-miterlimit="10"/>
<path d="M153.328 58.4806L153.13 29.9524C153.114 28.1899 151.681 26.7731 149.918 26.7731C148.189 26.7731 146.788 28.1237 146.706 29.8371L145.421 58.2174" stroke="#231F20" stroke-width="2.09001" stroke-miterlimit="10"/>
<path d="M159.504 63.4714L164.545 37.7758C164.808 36.4089 164.083 35.042 162.815 34.482C162.42 34.3169 162.025 34.2344 161.629 34.2344C160.312 34.2344 159.093 35.1238 158.747 36.4914L153.328 58.4805" stroke="#231F20" stroke-width="2.09001" stroke-miterlimit="10"/>
<path d="M137.318 60.4074L131.322 45.5502C130.68 43.9691 128.851 43.2775 127.319 44.0353C126.315 44.5291 125.722 45.5502 125.722 46.6211C125.722 46.9015 125.755 47.1647 125.837 47.4451L135.028 79.0038V91.7036H154.794V83.9456L159.043 79.0038L169.387 59.5841C169.964 58.5132 169.882 57.1962 169.173 56.2079C168.531 55.2849 167.543 54.8402 166.554 54.8402C165.484 54.8402 164.413 55.3675 163.787 56.4049L159.505 63.4713L151.714 64.3281L147.316 72.7941" stroke="#231F20" stroke-width="2.09001" stroke-miterlimit="10"/>
<rect x="128.253" y="91.0178" width="32.8101" height="14.1618" rx="3.71557" fill="white" stroke="#231F20" stroke-width="1.85779"/>
<rect x="132.258" y="91.9461" width="27.8763" height="12.304" rx="2.32223" fill="#66CC99"/>
<rect x="205.583" y="49.4587" width="68.0414" height="68.0414" rx="34.0207" fill="#9C27B0"/>
<path d="M257.242 31.4736C258.527 32.0336 259.268 33.4176 258.988 34.8008L253.635 62.3579V62.3742L247.227 58.9972C246.338 58.5197 245.251 58.8492 244.757 59.7223L244.164 60.776C243.966 61.1226 243.851 61.5011 243.801 61.8633L241.298 61.9131C241.298 61.6328 241.265 61.3368 241.182 61.0401L238.086 49.2632L234.116 29.8598C234.067 29.6457 234.05 29.4315 234.05 29.2173C234.05 27.8333 234.94 26.5817 236.29 26.1533C238.069 25.5934 239.947 26.6643 240.375 28.4758L247.03 54.6824L253.141 33.4503C253.503 32.0998 254.738 31.2267 256.056 31.2267C256.451 31.2267 256.847 31.3093 257.242 31.4736Z" fill="#FFCC99"/>
<path d="M228.812 60.5453V56.7243C228.812 55.3075 229.702 54.0396 231.036 53.5614L238.511 50.8814L238.086 49.2629L226.095 53.5614C224.76 54.0396 223.871 55.3075 223.871 56.7243V60.5453L229.257 77.3628V90.0626H234.198V77.3628L228.812 60.5453Z" fill="white"/>
<path d="M253.256 77.3628L257.538 69.3252C258.658 67.2332 257.868 64.6139 255.759 63.4939L253.635 62.374L247.227 58.9969C246.338 58.5195 245.251 58.8489 244.757 59.722L244.164 60.7758C243.966 61.1224 243.851 61.5009 243.801 61.8631L241.298 61.9129C241.298 61.6325 241.265 61.3366 241.182 61.0398L238.511 50.8814L231.036 53.5614C229.702 54.0396 228.812 55.3075 228.812 56.7243V60.5453L234.198 77.3628V90.0626H249.023V82.3046L253.256 77.3628Z" fill="#FFCC99"/>
<path d="M228.549 101.296V92.9617C228.549 91.3636 229.85 90.0629 231.448 90.0629H229.257H226.506C224.908 90.0629 223.607 91.3636 223.607 92.9617V101.296C223.607 102.894 224.908 104.179 226.506 104.179H231.448C229.85 104.179 228.549 102.894 228.549 101.296Z" fill="white"/>
<path d="M247.03 54.6823L240.375 28.4758C239.947 26.6642 238.069 25.5933 236.29 26.1533C234.939 26.5816 234.05 27.8332 234.05 29.2172C234.05 29.4314 234.067 29.6456 234.116 29.8598L238.086 49.2631" stroke="#231F20" stroke-width="2.09001" stroke-miterlimit="10"/>
<path d="M253.635 62.3577L258.988 34.8007C259.268 33.4175 258.527 32.0335 257.242 31.4735C256.846 31.3092 256.451 31.2266 256.056 31.2266C254.738 31.2266 253.503 32.0997 253.14 33.4502L247.03 54.6822" stroke="#231F20" stroke-width="2.09001" stroke-miterlimit="10"/>
<path d="M249.896 68.4186L247.392 66.5081L244.954 64.6303C244.081 63.9714 243.67 62.9013 243.801 61.8631C243.851 61.5009 243.966 61.1224 244.164 60.7758L244.757 59.722C245.251 58.8489 246.338 58.5195 247.227 58.9969L253.635 62.374L255.759 63.494C257.868 64.6139 258.658 67.2332 257.538 69.3252L253.256 77.3628L249.023 82.3046V90.0626H229.257V77.3628L223.871 60.5453V56.7243C223.871 55.3075 224.76 54.0396 226.095 53.5614L238.086 49.2629L241.182 61.0398C241.265 61.3366 241.298 61.6325 241.298 61.9129C241.298 63.543 240.145 65.0096 238.464 65.3056L233.82 66.1459C232.189 66.4427 230.591 65.5034 230.064 63.955L228.499 59.4915" stroke="#231F20" stroke-width="2.09001" stroke-miterlimit="10"/>
<path d="M247.392 66.5081L240.276 74.8098" stroke="#231F20" stroke-width="2.09001" stroke-miterlimit="10"/>
<rect x="221.749" y="89.773" width="32.8101" height="14.1618" rx="3.71557" fill="white" stroke="#231F20" stroke-width="1.85779"/>
<rect x="225.754" y="90.702" width="27.8763" height="12.304" rx="2.32223" fill="#66CC99"/>
</svg>
